HIERARCHY
ROOT Hips
{
	OFFSET 0.000000 97.167313 0.000000
	CHANNELS 6 Xposition Yposition Zposition Xrotation Yrotation Zrotation
	JOINT Spine
	{
		OFFSET 0.000000 13.784798 0.064400
		CHANNELS 3 Xrotation Yrotation Zrotation
		JOINT Spine1
		{
			OFFSET 0.000000 12.037903 0.404700
			CHANNELS 3 Xrotation Yrotation Zrotation
			JOINT Spine2
			{
				OFFSET 0.000000 17.795601 0.420200
				CHANNELS 3 Xrotation Yrotation Zrotation
				JOINT Neck
				{
					OFFSET 0.000000 39.131302 11.954600
					CHANNELS 3 Xrotation Yrotation Zrotation
					JOINT Head
					{
						OFFSET 0.000000 14.456192 15.627699
						CHANNELS 3 Xrotation Yrotation Zrotation
						JOINT HeadTop_End
						{
							OFFSET 0.000000 15.703506 7.603401
							CHANNELS 3 Xrotation Yrotation Zrotation
							End Site
							{
								OFFSET 0.000000 17.447403 0.000000
							}
						}
					}
				}
				JOINT LeftShoulder
				{
					OFFSET 17.399500 24.608795 1.168800
					CHANNELS 3 Xrotation Yrotation Zrotation
					JOINT LeftArm
					{
						OFFSET 18.980635 5.765305 1.818600
						CHANNELS 3 Xrotation Yrotation Zrotation
						JOINT LeftForeArm
						{
							OFFSET 49.290169 0.000000 0.000000
							CHANNELS 3 Xrotation Yrotation Zrotation
							JOINT LeftHand
							{
								OFFSET 31.562012 0.000000 0.000000
								CHANNELS 3 Xrotation Yrotation Zrotation
								JOINT LeftHandThumb1
								{
									OFFSET 6.133995 -4.388519 7.076070
									CHANNELS 3 Xrotation Yrotation Zrotation
									JOINT LeftHandThumb2
									{
										OFFSET 6.037666 -3.485840 3.485847
										CHANNELS 3 Xrotation Yrotation Zrotation
										JOINT LeftHandThumb3
										{
											OFFSET 6.496506 -3.750763 3.750761
											CHANNELS 3 Xrotation Yrotation Zrotation
											JOINT LeftHandThumb4
											{
												OFFSET 5.616882 -3.242905 3.242910
												CHANNELS 3 Xrotation Yrotation Zrotation
												End Site
												{
													OFFSET -1.254608 7.132141 0.375429
												}
											}
										}
									}
								}
								JOINT LeftHandPinky1
								{
									OFFSET 18.920792 -0.453171 -11.426712
									CHANNELS 3 Xrotation Yrotation Zrotation
									JOINT LeftHandPinky2
									{
										OFFSET 4.919586 0.000000 0.000000
										CHANNELS 3 Xrotation Yrotation Zrotation
										JOINT LeftHandPinky3
										{
											OFFSET 5.233047 0.000000 0.000000
											CHANNELS 3 Xrotation Yrotation Zrotation
											JOINT LeftHandPinky4
											{
												OFFSET 5.571716 0.000000 0.000000
												CHANNELS 3 Xrotation Yrotation Zrotation
												End Site
												{
													OFFSET -3.459808 4.342407 -0.466164
												}
											}
										}
									}
								}
								JOINT LeftHandRing1
								{
									OFFSET 22.726120 -0.094986 -6.500475
									CHANNELS 3 Xrotation Yrotation Zrotation
									JOINT LeftHandRing2
									{
										OFFSET 6.408615 0.000000 0.000000
										CHANNELS 3 Xrotation Yrotation Zrotation
										JOINT LeftHandRing3
										{
											OFFSET 6.150223 0.000000 0.000000
											CHANNELS 3 Xrotation Yrotation Zrotation
											JOINT LeftHandRing4
											{
												OFFSET 6.145386 0.000000 0.000000
												CHANNELS 3 Xrotation Yrotation Zrotation
												End Site
												{
													OFFSET -3.671402 4.923981 -0.202372
												}
											}
										}
									}
								}
								JOINT LeftHandMiddle1
								{
									OFFSET 23.373947 0.000000 0.000001
									CHANNELS 3 Xrotation Yrotation Zrotation
									JOINT LeftHandMiddle2
									{
										OFFSET 6.996567 0.000000 0.000000
										CHANNELS 3 Xrotation Yrotation Zrotation
										JOINT LeftHandMiddle3
										{
											OFFSET 7.015945 0.000000 0.000000
											CHANNELS 3 Xrotation Yrotation Zrotation
											JOINT LeftHandMiddle4
											{
												OFFSET 7.721573 0.000000 0.000000
												CHANNELS 3 Xrotation Yrotation Zrotation
												End Site
												{
													OFFSET -4.651108 6.158463 0.251582
												}
											}
										}
									}
								}
								JOINT LeftHandIndex1
								{
									OFFSET 21.310577 -0.490082 6.209344
									CHANNELS 3 Xrotation Yrotation Zrotation
									JOINT LeftHandIndex2
									{
										OFFSET 7.536453 0.000000 0.000000
										CHANNELS 3 Xrotation Yrotation Zrotation
										JOINT LeftHandIndex3
										{
											OFFSET 7.512344 0.000000 0.000000
											CHANNELS 3 Xrotation Yrotation Zrotation
											JOINT LeftHandIndex4
											{
												OFFSET 10.212402 0.000000 0.000001
												CHANNELS 3 Xrotation Yrotation Zrotation
												End Site
												{
													OFFSET -5.180801 8.690506 1.388433
												}
											}
										}
									}
								}
							}
						}
					}
				}
				JOINT RightShoulder
				{
					OFFSET -17.399500 24.608795 1.168800
					CHANNELS 3 Xrotation Yrotation Zrotation
					JOINT RightArm
					{
						OFFSET -18.980635 5.765305 1.818600
						CHANNELS 3 Xrotation Yrotation Zrotation
						JOINT RightForeArm
						{
							OFFSET -49.290169 0.000000 0.000000
							CHANNELS 3 Xrotation Yrotation Zrotation
							JOINT RightHand
							{
								OFFSET -31.562012 0.000000 0.000000
								CHANNELS 3 Xrotation Yrotation Zrotation
								JOINT RightHandThumb1
								{
									OFFSET -6.133995 -4.388519 7.076070
									CHANNELS 3 Xrotation Yrotation Zrotation
									JOINT RightHandThumb2
									{
										OFFSET -6.037666 -3.485840 3.485847
										CHANNELS 3 Xrotation Yrotation Zrotation
										JOINT RightHandThumb3
										{
											OFFSET -6.496506 -3.750763 3.750761
											CHANNELS 3 Xrotation Yrotation Zrotation
											JOINT RightHandThumb4
											{
												OFFSET -5.616882 -3.242905 3.242910
												CHANNELS 3 Xrotation Yrotation Zrotation
												End Site
												{
													OFFSET 1.254608 7.132141 0.375429
												}
											}
										}
									}
								}
								JOINT RightHandIndex1
								{
									OFFSET -21.310577 -0.490082 6.209344
									CHANNELS 3 Xrotation Yrotation Zrotation
									JOINT RightHandIndex2
									{
										OFFSET -7.536453 0.000000 0.000000
										CHANNELS 3 Xrotation Yrotation Zrotation
										JOINT RightHandIndex3
										{
											OFFSET -7.512344 0.000000 0.000000
											CHANNELS 3 Xrotation Yrotation Zrotation
											JOINT RightHandIndex4
											{
												OFFSET -10.212402 0.000000 0.000001
												CHANNELS 3 Xrotation Yrotation Zrotation
												End Site
												{
													OFFSET 5.180801 8.690506 1.388433
												}
											}
										}
									}
								}
								JOINT RightHandMiddle1
								{
									OFFSET -23.373947 0.000000 0.000001
									CHANNELS 3 Xrotation Yrotation Zrotation
									JOINT RightHandMiddle2
									{
										OFFSET -6.996567 0.000000 0.000000
										CHANNELS 3 Xrotation Yrotation Zrotation
										JOINT RightHandMiddle3
										{
											OFFSET -7.015945 0.000000 0.000000
											CHANNELS 3 Xrotation Yrotation Zrotation
											JOINT RightHandMiddle4
											{
												OFFSET -7.721573 0.000000 0.000000
												CHANNELS 3 Xrotation Yrotation Zrotation
												End Site
												{
													OFFSET 4.651108 6.158463 0.251582
												}
											}
										}
									}
								}
								JOINT RightHandRing1
								{
									OFFSET -22.726120 -0.094986 -6.500475
									CHANNELS 3 Xrotation Yrotation Zrotation
									JOINT RightHandRing2
									{
										OFFSET -6.408615 0.000000 0.000000
										CHANNELS 3 Xrotation Yrotation Zrotation
										JOINT RightHandRing3
										{
											OFFSET -6.150223 0.000000 0.000000
											CHANNELS 3 Xrotation Yrotation Zrotation
											JOINT RightHandRing4
											{
												OFFSET -6.145386 0.000000 0.000000
												CHANNELS 3 Xrotation Yrotation Zrotation
												End Site
												{
													OFFSET 3.671402 4.923981 -0.202372
												}
											}
										}
									}
								}
								JOINT RightHandPinky1
								{
									OFFSET -18.920792 -0.453171 -11.426712
									CHANNELS 3 Xrotation Yrotation Zrotation
									JOINT RightHandPinky2
									{
										OFFSET -4.919586 0.000000 0.000000
										CHANNELS 3 Xrotation Yrotation Zrotation
										JOINT RightHandPinky3
										{
											OFFSET -5.233047 0.000000 0.000000
											CHANNELS 3 Xrotation Yrotation Zrotation
											JOINT RightHandPinky4
											{
												OFFSET -5.571716 0.000000 0.000000
												CHANNELS 3 Xrotation Yrotation Zrotation
												End Site
												{
													OFFSET 3.459808 4.342407 -0.466164
												}
											}
										}
									}
								}
							}
						}
					}
				}
			}
		}
	}
	JOINT LeftUpLeg
	{
		OFFSET 19.899099 -7.885101 -3.429500
		CHANNELS 3 Xrotation Yrotation Zrotation
		JOINT LeftLeg
		{
			OFFSET 1.745560 -36.997807 10.304700
			CHANNELS 3 Xrotation Yrotation Zrotation
			JOINT LeftFoot
			{
				OFFSET -1.745558 -29.803308 -13.615400
				CHANNELS 3 Xrotation Yrotation Zrotation
				JOINT LeftToeBase
				{
					OFFSET 1.181900 -18.539904 15.226099
					CHANNELS 3 Xrotation Yrotation Zrotation
					JOINT LeftToe_End
					{
						OFFSET -0.863701 1.402801 16.534700
						CHANNELS 3 Xrotation Yrotation Zrotation
						End Site
						{
							OFFSET 0.000000 16.616566 0.000000
						}
					}
				}
			}
		}
	}
	JOINT RightUpLeg
	{
		OFFSET -19.899099 -7.885101 -3.429500
		CHANNELS 3 Xrotation Yrotation Zrotation
		JOINT RightLeg
		{
			OFFSET -1.745560 -36.997807 10.304700
			CHANNELS 3 Xrotation Yrotation Zrotation
			JOINT RightFoot
			{
				OFFSET 1.745558 -29.803308 -13.615400
				CHANNELS 3 Xrotation Yrotation Zrotation
				JOINT RightToeBase
				{
					OFFSET -1.181900 -18.539904 15.226099
					CHANNELS 3 Xrotation Yrotation Zrotation
					JOINT RightToe_End
					{
						OFFSET 0.863701 1.402801 16.534700
						CHANNELS 3 Xrotation Yrotation Zrotation
						End Site
						{
							OFFSET 0.000000 16.616566 0.000000
						}
					}
				}
			}
		}
	}
}
MOTION
Frames: 4
Frame Time: 0.033333
21.885242 94.719543 0.835766 -0.029526 -48.024757 3.859909 7.978401 1.821915 6.278271 -4.241833 1.992520 -4.016398 -4.110803 2.077227 -4.097659 5.172757 31.649638 2.432180 0.772330 24.577778 -2.854058 0.000000 0.000000 -0.000001 3.420821 -7.510222 -1.575898 -0.959023 9.802677 -73.347339 -1.199788 -14.954718 -0.457318 -2.652290 3.751591 0.030245 10.756194 -0.276886 15.888953 -2.078948 24.471040 -5.952307 -5.724542 2.320725 -2.139437 0.000001 -0.000000 -0.000001 -4.042134 12.924976 -14.889063 8.424595 2.584738 -28.756565 5.090152 2.539185 -11.998400 -0.000003 0.000001 0.000001 -3.635667 10.866775 -4.562492 2.990485 3.445789 -26.942639 1.675445 2.522341 -13.077767 0.000004 0.000002 0.000003 -1.914630 4.431479 -7.071228 -0.021411 4.066295 -21.433467 -0.527715 0.886828 -9.219797 0.000003 -0.000000 0.000001 1.188137 0.651746 -2.745195 -1.782838 1.904896 -14.445556 -1.605235 3.832969 -10.714497 -0.000004 -0.000001 0.000001 4.372368 6.996411 -1.949853 4.037719 -9.280523 78.645230 -2.281951 16.825988 -1.220170 -0.842792 -4.962970 -1.930633 16.275320 -7.502182 -18.278069 0.811536 -35.171803 7.834156 -4.588570 -8.095816 1.734542 0.000003 -0.000001 0.000002 2.333782 -3.645237 13.538560 -2.153804 -2.446328 23.730553 -1.895706 -4.857939 19.516869 0.000003 -0.000001 0.000001 -1.978752 -5.676280 27.126231 0.266738 -5.090301 40.479096 -0.646791 -1.120153 25.201257 0.000000 0.000001 -0.000006 -4.973984 -10.108368 24.282451 4.028889 -4.054832 46.775618 2.114657 -3.147622 29.111383 -0.000002 -0.000003 -0.000010 -6.464681 -11.339530 36.817670 10.719009 -2.564212 48.378127 6.421394 -3.082608 28.833302 -0.000003 -0.000001 0.000004 -1.480025 6.399818 -4.020633 18.748581 6.261724 -0.076438 9.711033 -0.018975 -1.587894 -31.868853 0.253857 1.256753 -0.000000 -0.000001 0.000000 -27.471560 -0.435974 -4.378257 25.997754 4.284973 -0.622279 29.371965 -1.432458 -0.910831 -30.665709 -1.582949 2.604009 -0.000000 -0.000002 -0.000000 
21.973633 94.761917 0.821205 -0.289718 -49.531466 3.667088 8.066922 1.783067 6.153655 -4.280110 1.973673 -3.991093 -4.156020 2.051519 -4.071999 5.593657 32.050273 2.671275 1.014153 24.777602 -2.879140 -0.000000 0.000000 -0.000000 3.435868 -7.893161 -1.540218 -1.223107 9.600692 -73.361081 -0.991081 -15.482637 -0.316295 -2.688062 3.361620 -0.250294 10.756202 -0.276885 15.888955 -1.883534 24.787035 -5.950565 -5.568558 2.648008 -2.062917 -0.000002 0.000000 0.000002 -4.042079 12.927764 -15.260845 8.424803 2.585100 -29.128493 5.090192 2.540890 -12.370562 -0.000003 -0.000002 -0.000002 -3.636537 10.867177 -4.933972 2.990446 3.446356 -27.314517 1.675715 2.522684 -13.449697 0.000000 -0.000001 0.000003 -1.914808 4.433271 -7.442951 -0.021080 4.066432 -21.805498 -0.527865 0.887128 -9.591632 -0.000001 0.000000 0.000008 1.186974 0.652168 -3.117029 -1.783344 1.905591 -14.817339 -1.605046 3.833163 -11.086347 -0.000002 0.000001 0.000001 4.354634 6.888719 -1.479645 4.310058 -8.923996 78.258224 -2.621618 16.223946 -1.228278 -0.877076 -4.936564 -2.674111 16.266063 -7.400408 -18.255822 0.746885 -35.084448 7.820369 -4.632367 -8.003372 1.751955 0.000005 0.000001 0.000005 2.333670 -3.644935 13.426135 -2.153980 -2.446310 23.617997 -1.895885 -4.857784 19.404422 0.000002 -0.000003 -0.000002 -1.980325 -5.676208 26.832523 0.266609 -5.090235 40.185452 -0.647572 -1.119750 24.907680 0.000001 0.000004 -0.000001 -4.973755 -10.108106 23.988739 4.028020 -4.054740 46.481917 2.114769 -3.147579 28.817804 -0.000000 0.000003 -0.000005 -6.464879 -11.338759 36.524109 10.719030 -2.564247 48.084641 6.421284 -3.082319 28.539701 -0.000000 -0.000001 -0.000001 -0.722899 6.291552 -4.248678 18.392950 6.992329 -0.136504 9.506001 0.697389 -1.975384 -31.854237 0.209890 1.297628 0.000000 -0.000002 0.000000 -27.299556 -0.450352 -4.601353 25.565176 2.610582 -0.575124 29.836660 -1.630970 -0.065753 -30.546966 -1.272345 2.110481 -0.000000 0.000002 0.000000 
22.103672 94.717209 0.817029 -0.557556 -51.090167 3.520192 8.031542 1.714819 6.013456 -4.243114 1.969833 -4.018926 -4.125732 2.036334 -4.099812 6.094742 32.379171 2.799743 1.080413 24.872009 -2.792381 0.000000 0.000001 -0.000000 3.474544 -8.360282 -1.315795 -1.543419 9.336138 -73.621953 -1.628735 -16.011903 -0.446923 -2.724302 3.117616 -0.481536 10.756202 -0.276888 15.888953 -1.637904 25.183189 -5.950025 -5.373351 3.058449 -1.968154 -0.000001 0.000001 0.000004 -4.041876 12.927975 -15.727211 8.425187 2.585622 -29.594742 5.090435 2.541225 -12.836915 0.000002 0.000004 -0.000002 -3.635889 10.867395 -5.400158 2.990415 3.446737 -27.780633 1.676259 2.523109 -13.915938 -0.000000 -0.000001 0.000003 -1.914984 4.433761 -7.909046 -0.020780 4.066700 -22.271814 -0.527955 0.887544 -10.057769 -0.000001 -0.000002 0.000004 1.185521 0.652764 -3.583114 -1.784002 1.906105 -15.283453 -1.604863 3.833594 -11.552481 0.000002 0.000003 0.000001 4.343632 6.619947 -1.148472 4.491398 -8.800192 78.165375 -3.178255 15.527412 -1.314799 -0.909649 -4.342958 -2.561016 16.255442 -7.283928 -18.230349 0.673033 -34.984444 7.804775 -4.682478 -7.897571 1.771965 -0.000000 -0.000002 -0.000001 2.333604 -3.644435 13.297483 -2.154195 -2.446196 23.489260 -1.895750 -4.857614 19.275788 -0.000000 -0.000003 0.000001 -1.980267 -5.675833 26.496626 0.266469 -5.090201 39.849434 -0.648458 -1.119485 24.571679 0.000001 0.000001 -0.000004 -4.973464 -10.107915 23.652679 4.027059 -4.054636 46.145834 2.114746 -3.147350 28.481809 0.000001 0.000001 -0.000003 -6.465009 -11.337869 36.188152 10.718966 -2.563924 47.748688 6.421186 -3.082034 28.203782 0.000001 0.000000 0.000004 -0.090203 6.217110 -4.766590 18.201915 6.959545 -0.143951 9.237844 2.315073 -2.357075 -31.853451 0.176957 1.318944 -0.000000 -0.000002 -0.000000 -27.341582 -0.257622 -4.761823 25.421189 1.236999 -0.542507 30.297674 -1.877464 0.701815 -30.443748 -0.997573 1.669546 -0.000000 0.000003 0.000000 
22.242231 94.632324 0.820237 -0.670118 -52.383149 3.461631 7.832548 1.589290 5.946637 -4.216966 1.905224 -4.061946 -4.108345 1.965294 -4.139781 6.739481 32.662658 2.732359 0.967406 24.878240 -2.619497 -0.000000 -0.000000 0.000000 3.530731 -8.801203 -0.947241 -1.790483 8.814351 -74.148069 -2.852575 -16.476882 -0.835912 -2.766381 2.963515 -0.596707 10.756206 -0.276888 15.888956 -1.349394 25.646664 -5.951734 -5.145676 3.539183 -1.859048 0.000000 0.000001 0.000002 -4.041637 12.928311 -16.272956 8.425432 2.586098 -30.140303 5.090648 2.541598 -13.382642 -0.000001 -0.000001 -0.000007 -3.635233 10.867628 -5.945613 2.990244 3.447132 -28.326121 1.677038 2.523524 -14.461570 -0.000003 -0.000001 0.000005 -1.914937 4.434215 -8.454495 -0.020451 4.067104 -22.817499 -0.527976 0.887953 -10.603249 -0.000004 0.000000 0.000006 1.185549 0.653229 -4.128633 -1.784646 1.906616 -15.828982 -1.604674 3.834071 -12.097956 -0.000000 0.000003 0.000002 4.349980 6.113679 -1.079976 4.728817 -8.834689 78.356763 -3.139857 15.028590 -1.497187 -0.935356 -3.693164 -2.034852 16.243547 -7.153976 -18.201858 0.590691 -34.872788 7.787511 -4.738566 -7.779591 1.794391 0.000002 -0.000002 0.000001 2.333506 -3.644003 13.153933 -2.154387 -2.445927 23.345551 -1.895824 -4.857444 19.132217 0.000002 -0.000001 -0.000001 -1.980265 -5.675664 26.121703 0.266300 -5.090101 39.474440 -0.649367 -1.119085 24.196763 -0.000000 0.000001 -0.000009 -4.973151 -10.107746 23.277618 4.026054 -4.054525 45.770733 2.114627 -3.147209 28.106818 -0.000000 -0.000001 -0.000005 -6.465130 -11.336851 35.813311 10.718985 -2.563826 47.373793 6.421142 -3.081931 27.828842 0.000000 -0.000001 0.000004 0.292582 6.129734 -4.946543 18.270485 8.097783 -0.166949 8.895968 2.446876 -2.720137 -31.872436 0.155330 1.332142 0.000000 -0.000004 -0.000000 -27.545861 -0.010485 -4.785230 25.392575 0.320485 -0.526688 30.703930 -2.019832 1.201469 -30.385032 -0.807538 1.365065 -0.000000 0.000003 -0.000000 
